<svg width="160" height="67" viewBox="0 0 160 67" fill="none" xmlns="http://www.w3.org/2000/svg">
<path d="M16.3063 20.895C16.9477 21.4527 18.2862 21.1739 19.0949 20.7556C19.3459 20.6162 19.5132 20.5046 19.6526 20.3931L26.5403 13.589L18.2583 9.79662C18.2583 9.79662 18.3699 11.0236 18.4814 12.4179C18.5651 13.6448 19.1507 15.3458 17.6727 15.8757C15.916 16.517 15.2746 20.0027 16.3063 20.895Z" fill="#CD8762"/>
<path d="M70.3202 58.2058L5.15186 58.15C6.32305 62.779 14.7445 66.934 14.7445 66.934L73.304 66.683L70.3202 58.2058Z" fill="#CD8762"/>
<path d="M15.8322 46.2151L64.325 45.0996C36.7463 22.1778 15.8322 46.2151 15.8322 46.2151Z" fill="#CD8762"/>
<path d="M69.0097 55.4173L65.6913 47.9161C65.7192 47.9161 65.7192 47.9161 65.6913 47.9161C51.5255 48.0834 19.8755 48.5017 13.8243 48.5574C12.7089 48.5574 11.705 47.9161 11.2867 46.9122C11.2867 46.8843 11.2867 46.8843 11.2589 46.8564C10.3386 44.5698 21.6323 35.7022 29.3008 28.1453C35.9375 21.5643 42.3791 15.0391 41.0684 8.59754C40.2598 4.6378 37.276 2.26754 37.276 2.26754C34.5432 0.092476 31.3922 0.0367034 30.1373 0.00881793C29.0498 -0.0190675 26.9584 -0.0469496 24.6997 1.04058C21.0746 2.76948 17.8398 6.92442 18.9274 9.0716C19.1226 9.462 27.1257 13.1987 27.795 12.864C28.9661 12.2784 28.5479 10.0755 29.8864 9.54565C30.695 9.23891 31.8383 9.60142 32.173 10.3264C32.5913 11.163 31.8105 12.3063 31.6431 12.5573C31.5037 12.7525 31.3643 12.9198 31.197 13.0871L29.245 15.0391C29.245 15.0391 15.0513 28.9261 4.81731 40.1918C2.39128 42.8688 1.02489 45.1554 0.355636 47.1074C-1.12229 51.4854 2.19608 56.0028 6.79718 56.0028L69.0097 55.4173Z" fill="#CD8762"/>
<path d="M87.944 52.7124C89.2267 53.1028 90.2306 53.7999 90.9556 54.8596C91.6807 55.9192 92.0432 57.425 92.0432 59.4049C92.0432 61.5242 91.6528 63.1137 90.8999 64.2291C90.147 65.3166 89.1152 66.0416 87.8325 66.4041C86.5497 66.7666 84.9324 66.934 82.9804 66.934H77.7937V52.1547H82.9525C84.9882 52.1547 86.6334 52.322 87.944 52.7124ZM86.8844 61.803C86.968 60.9386 87.0238 60.1299 87.0238 59.4049C87.0238 58.4847 86.968 57.7596 86.8286 57.2019C86.6892 56.6442 86.4661 56.2259 86.1315 55.8913C85.6016 55.3057 84.7093 55.0269 83.4544 55.0269C83.2314 55.0269 82.8967 55.0548 82.4506 55.0826V63.6993C82.7573 63.7271 83.2035 63.755 83.817 63.755C84.4583 63.755 85.016 63.7271 85.518 63.6714C86.0199 63.6156 86.3267 63.5319 86.4382 63.3925C86.6334 63.1973 86.8007 62.6675 86.8844 61.803Z" fill="#CD8762"/>
<path d="M101.97 54.8317C102.221 54.8874 102.417 54.9432 102.528 55.0269C102.528 55.4173 102.472 56.0307 102.389 56.8952C102.305 57.7596 102.221 58.401 102.166 58.7635C101.998 58.7356 101.664 58.7356 101.218 58.7356C100.13 58.7356 99.154 58.7914 98.3175 58.9308V66.934H93.8837V54.999H97.5924L98.1223 56.9231H98.1501C98.6521 56.2538 99.1819 55.7519 99.7675 55.3336C100.325 54.9432 100.855 54.748 101.301 54.748C101.496 54.748 101.719 54.7759 101.97 54.8317Z" fill="#CD8762"/>
<path d="M113.347 63.3925C113.515 63.3925 113.794 63.3646 114.212 63.3367L114.602 66.0137C113.264 66.6272 111.535 66.934 109.415 66.934C107.436 66.934 105.902 66.432 104.842 65.4281C103.783 64.4243 103.253 62.9185 103.253 60.8828C103.253 59.8511 103.392 58.8472 103.643 57.8712C103.922 56.8952 104.229 56.2259 104.563 55.8356C104.926 55.4452 105.595 55.1384 106.599 54.8596C107.575 54.5807 108.551 54.4413 109.527 54.4413C111.089 54.4413 112.26 54.7201 113.041 55.2778C113.821 55.8356 114.323 56.5885 114.574 57.5644C114.825 58.5404 114.937 59.8511 114.937 61.4963C113.766 61.5521 112.622 61.6078 111.479 61.6078H107.77C107.77 62.1656 107.882 62.5838 108.133 62.8627C108.356 63.1415 108.69 63.3089 109.137 63.3925C109.555 63.4762 110.168 63.5041 110.949 63.5041C111.367 63.5041 112.176 63.4762 113.347 63.3925ZM107.798 58.2058C107.742 58.5962 107.714 59.0424 107.687 59.5443H109.025C109.834 59.5443 110.419 59.5443 110.782 59.5164C110.782 58.6799 110.67 58.0943 110.419 57.7596C110.196 57.425 109.778 57.2298 109.22 57.2298C108.746 57.2298 108.356 57.3135 107.993 57.5087C107.938 57.5923 107.854 57.8154 107.798 58.2058Z" fill="#CD8762"/>
<path d="M123.582 66.6272L123.163 64.982C122.355 66.2926 121.267 66.934 119.845 66.934C118.674 66.934 117.726 66.5993 117.001 65.958C116.276 65.3166 115.885 64.3964 115.885 63.2252C115.885 62.5002 116.108 61.8588 116.527 61.329C116.945 60.7713 117.53 60.4088 118.283 60.1857C119.259 59.9068 120.737 59.7674 122.773 59.7116C122.773 58.5683 122.717 57.9548 122.606 57.8991C122.522 57.8433 122.243 57.7875 121.769 57.7875C121.462 57.7875 121.072 57.8154 120.542 57.8433C119.706 57.8712 118.59 57.9827 117.168 58.1222C117.029 57.174 116.917 56.1702 116.861 55.1105C117.781 54.9153 118.73 54.748 119.733 54.6365C120.737 54.497 121.63 54.4413 122.438 54.4413C123.833 54.4413 124.864 54.6644 125.562 55.1384C126.259 55.5846 126.705 56.1981 126.9 56.951C127.095 57.7039 127.207 58.652 127.179 59.7674L127.151 63.5877L127.235 66.6551H123.582V66.6272ZM122.773 63.7829V61.8588H122.578C121.295 61.8588 120.598 61.9146 120.458 62.054C120.375 62.1377 120.319 62.2771 120.263 62.4444C120.207 62.6117 120.208 62.779 120.208 62.9463C120.208 63.3646 120.291 63.6435 120.486 63.8108C120.682 63.9781 120.96 64.0339 121.379 64.0339C121.797 64.0339 122.271 63.9502 122.773 63.7829Z" fill="#CD8762"/>
<path d="M148.288 60.6597V66.934H143.854V61.1059V59.7116C143.854 59.0703 143.798 58.6799 143.659 58.5683C143.52 58.4289 143.241 58.3731 142.767 58.3731L142.46 58.401C141.93 58.4289 141.4 58.5683 140.926 58.7635C140.954 59.126 140.954 59.7674 140.954 60.6876V66.934H136.52V61.1059V59.5443C136.52 59.0145 136.465 58.6799 136.325 58.5683C136.186 58.4289 135.879 58.3731 135.433 58.3731L135.126 58.401C134.652 58.4289 134.15 58.5404 133.62 58.7356V66.934H129.186V54.999H132.784L133.258 56.951C133.815 56.1981 134.485 55.6404 135.238 55.2778C135.99 54.9153 136.743 54.748 137.496 54.748C138.138 54.748 138.751 54.8317 139.337 55.0269C139.922 55.2221 140.313 55.473 140.536 55.8355C140.647 56.0029 140.731 56.2817 140.787 56.7C141.344 56.0307 141.958 55.5288 142.683 55.2221C143.38 54.9153 144.105 54.748 144.802 54.748C145.444 54.748 146.057 54.8317 146.643 55.0269C147.228 55.2221 147.619 55.473 147.842 55.8355C148.149 56.2538 148.288 57.8433 148.288 60.6597Z" fill="#CD8762"/>
<path d="M158.522 65.9301C157.546 66.5993 156.152 66.934 154.367 66.934C153.112 66.934 151.662 66.7388 150.017 66.3763C150.045 66.0416 150.128 65.5397 150.268 64.8983C150.407 64.257 150.519 63.755 150.602 63.3925C151.216 63.504 151.913 63.5877 152.666 63.6435C153.419 63.6993 154.088 63.7271 154.618 63.7271C155.092 63.7271 155.371 63.6993 155.482 63.6435C155.51 63.6156 155.51 63.5877 155.538 63.5041C155.566 63.4204 155.566 63.3367 155.566 63.2531C155.566 62.9185 155.343 62.6675 154.925 62.5559C154.785 62.5281 154.255 62.3608 153.335 62.1098C152.415 61.8588 151.662 61.3847 151.076 60.6876C150.491 60.0184 150.212 59.1539 150.212 58.1222C150.212 57.5923 150.324 56.9789 150.575 56.3375C150.826 55.6682 151.076 55.2778 151.355 55.0826C151.551 54.9432 152.052 54.8038 152.861 54.6644C153.67 54.5249 154.395 54.4413 155.064 54.4413C156.514 54.4413 157.936 54.5528 159.386 54.748C159.386 55.0548 159.331 55.5846 159.247 56.3096C159.163 57.0346 159.08 57.5087 159.024 57.7039C157.546 57.5087 156.375 57.425 155.455 57.425C154.98 57.425 154.674 57.4529 154.534 57.5087C154.506 57.5366 154.479 57.5644 154.423 57.6481C154.395 57.7318 154.367 57.8154 154.367 57.9548C154.367 58.2058 154.451 58.3731 154.59 58.4847C154.757 58.5962 155.148 58.7635 155.817 58.9308C156.598 59.1539 157.267 59.4049 157.825 59.628C158.382 59.8789 158.884 60.2415 159.303 60.7155C159.721 61.1896 159.944 61.8309 159.944 62.5838C160 64.1454 159.498 65.2608 158.522 65.9301Z" fill="#CD8762"/>
<path d="M98.2616 38.1562C98.2616 40.0524 97.676 41.5303 96.5048 42.6457C95.3615 43.7333 93.8557 44.2631 91.9595 44.2631C90.119 44.2631 88.6411 43.7054 87.5257 42.59C86.4381 41.5024 85.8804 40.0245 85.8804 38.1562C85.8804 37.2359 86.0199 36.3994 86.2987 35.6465H84.6256C82.5342 35.6465 81.4745 37.0129 81.4745 39.7177V48.6132H77.7657V39.1321C77.7657 36.8177 78.435 35.033 79.7456 33.7503C80.9447 32.5791 82.5063 31.9656 84.4583 31.9656H92.0989C93.9393 31.9656 95.4451 32.5233 96.5606 33.6666C97.7039 34.8378 98.2616 36.3157 98.2616 38.1562ZM94.5528 38.0725C94.5528 37.2359 94.3576 36.5388 93.9672 36.009C93.521 35.3955 92.8797 35.0888 92.0989 35.0888C91.2623 35.0888 90.6488 35.4234 90.2027 36.0647C89.8123 36.6225 89.6171 37.3475 89.6171 38.184C89.6171 39.0206 89.8123 39.6899 90.1469 40.2476C90.5652 40.9168 91.1787 41.2514 91.9316 41.2514H92.2104C93.7441 41.2236 94.5528 40.1918 94.5528 38.0725Z" fill="#CD8762"/>
<path d="M137.162 42.9525V44.1794H101.022V40.5822H105.066L101.692 28.703H105.651L108.97 40.5822H109.304C110.169 40.5822 110.754 40.1918 111.061 39.3831C111.173 39.1879 111.228 38.7139 111.228 37.9888V26.8625H114.937V37.8494C114.937 38.8254 114.798 39.7177 114.519 40.5543H133.202C133.035 37.5427 130.748 35.1445 127.569 35.1445C125.952 35.1445 124.139 35.9811 123.08 37.0686C122.689 36.5667 122.104 35.7301 121.211 34.5032C123.052 32.6069 125.255 31.6588 127.848 31.6588C133.983 31.7425 137.162 35.9532 137.162 42.9525Z" fill="#CD8762"/>
<path d="M153.475 39.7735C153.475 41.0841 153.056 42.1438 152.164 42.9803C151.272 43.789 150.184 44.1794 148.874 44.1794H139.95V40.5822H143.966L140.592 28.6751H144.579L147.898 40.5822C149.153 40.5543 149.794 39.6341 149.794 37.8494V26.8904H153.503V39.7735H153.475Z" fill="#CD8762"/>
<path d="M160 44.1794H156.236V26.8625H160V44.1794Z" fill="#CD8762"/>
</svg>
